<?xml version="1.0" encoding="utf-8"?>
<!-- Svg Vector Icons : http://www.onlinewebfonts.com/icon -->
<!DOCTYPE svg PUBLIC "-//W3C//DTD SVG 1.1//EN" "http://www.w3.org/Graphics/SVG/1.1/DTD/svg11.dtd">
<svg version="1.1" xmlns="http://www.w3.org/2000/svg" xmlns:xlink="http://www.w3.org/1999/xlink" x="0px" y="0px" viewBox="0 0 256 256" enable-background="new 0 0 256 256" xml:space="preserve">
<metadata> Svg Vector Icons : http://www.onlinewebfonts.com/icon </metadata>
<g><g><path fill="#000000" d="M238.9,150.8c-1.7,0-3.4-0.6-4.8-1.9L127.9,51.3L21.8,146.8c-2.9,2.6-7.4,2.4-10-0.5c-2.6-2.9-2.4-7.4,0.5-10L128.1,32.1l115.7,106.3c2.9,2.6,3.1,7.2,0.4,10C242.7,150,240.8,150.8,238.9,150.8z"/><path fill="#000000" d="M215.6,223.9h-74.2v-54h-23.3V222H44l0.1-108.1c0-3.9,3.2-7.1,7.1-7.1l0,0c3.9,0,7.1,3.2,7.1,7.1l-0.1,93.9h45.8v-52.1h51.6v54h45.8l-0.1-92c0-3.9,3.2-7.1,7.1-7.1l0,0c3.9,0,7.1,3.2,7.1,7.1L215.6,223.9z"/></g></g>
</svg>